<svg xmlns="http://www.w3.org/2000/svg" xmlns:xlink="http://www.w3.org/1999/xlink" width="24" height="24" viewBox="0 0 24 24">
  <defs>
    <linearGradient id="linear-gradient" x1="0.056" y1="-0.048" x2="1" y2="1" gradientUnits="objectBoundingBox">
      <stop offset="0" stop-color="#39d1ff"/>
      <stop offset="1" stop-color="#3149ff"/>
    </linearGradient>
  </defs>
  <g id="logout-icon" transform="translate(-982 -526)">
    <rect id="Rectangle_1085" data-name="Rectangle 1085" width="24" height="24" transform="translate(982 526)" fill="none"/>
    <path id="out" d="M36.142,15.978a.841.841,0,0,1-.841.841h-6.32a3.368,3.368,0,0,1-3.364-3.364V3.364A3.368,3.368,0,0,1,28.981,0H35.3a.841.841,0,0,1,0,1.682h-6.32A1.684,1.684,0,0,0,27.3,3.364V13.455a1.684,1.684,0,0,0,1.682,1.682H35.3a.841.841,0,0,1,.841.841Zm6.605-7.247a.844.844,0,0,0-.182-.916L39.2,4.451A.841.841,0,1,0,38.013,5.64l1.928,1.928h-6.38a.841.841,0,0,0,0,1.682h6.38l-1.928,1.928A.841.841,0,1,0,39.2,12.368L42.566,9a.841.841,0,0,0,.182-.273Z" transform="translate(959.941 529.117)" fill="url(#linear-gradient)"/>
  </g>
</svg>
