<svg xmlns="http://www.w3.org/2000/svg" xmlns:xlink="http://www.w3.org/1999/xlink" width="30" height="30" viewBox="0 0 30 30">
  <defs>
    <linearGradient id="linear-gradient" x2="1" y2="1" gradientUnits="objectBoundingBox">
      <stop offset="0" stop-color="#39d1ff"/>
      <stop offset="1" stop-color="#3149ff"/>
    </linearGradient>
  </defs>
  <g id="earned-fees-icon" transform="translate(-0.265 -0.265)">
    <path id="path824" d="M15.265.265a15,15,0,1,0,15,15,15.015,15.015,0,0,0-15-15Zm0,2a13,13,0,1,1-13,13,12.992,12.992,0,0,1,13-13ZM15.251,7.27a1,1,0,0,0-.982,1.012v.842a3.267,3.267,0,0,0-3,3.145,3.575,3.575,0,0,0,1.32,2.85,7.481,7.481,0,0,0,2.361,1.1,6.558,6.558,0,0,1,1.766.775,1.308,1.308,0,0,1,.545,1.277c0,1.667-3.992,1.667-3.992,0a1,1,0,1,0-2,0,3.272,3.272,0,0,0,3,3.146v.838a1,1,0,1,0,2,0v-.838a3.274,3.274,0,0,0,3-3.146,3.576,3.576,0,0,0-1.322-2.85,7.488,7.488,0,0,0-2.361-1.1,6.564,6.564,0,0,1-1.766-.773,1.308,1.308,0,0,1-.545-1.277c0-1.667,3.992-1.667,3.992,0a1,1,0,0,0,2,0,3.272,3.272,0,0,0-3-3.143V8.282A1,1,0,0,0,15.251,7.27Z" transform="translate(0 0)" fill="url(#linear-gradient)"/>
  </g>
</svg>
