<svg xmlns="http://www.w3.org/2000/svg" xmlns:xlink="http://www.w3.org/1999/xlink" width="32" height="23.999" viewBox="0 0 32 23.999">
  <defs>
    <linearGradient id="linear-gradient" x2="1" y2="1" gradientUnits="objectBoundingBox">
      <stop offset="0" stop-color="#39d1ff"/>
      <stop offset="1" stop-color="#3149ff"/>
    </linearGradient>
  </defs>
  <path id="lottery-tickets-icon" d="M6650.436-16300.191a2.634,2.634,0,0,1-2.6-2.663v-4.207a1.884,1.884,0,0,1,1.569-1.855,3.256,3.256,0,0,0,2.7-3.273,3.259,3.259,0,0,0-2.712-3.273,1.873,1.873,0,0,1-1.557-1.852v-4.212a2.635,2.635,0,0,1,2.6-2.663h26.8a2.632,2.632,0,0,1,2.6,2.663v4.212a1.87,1.87,0,0,1-1.569,1.852,3.249,3.249,0,0,0-2.7,3.273,3.253,3.253,0,0,0,2.708,3.273,1.885,1.885,0,0,1,1.557,1.855v4.207a2.632,2.632,0,0,1-2.6,2.663Zm-.467-21.336v3.982a5.419,5.419,0,0,1,4.355,5.362,5.425,5.425,0,0,1-4.355,5.358v3.982a.472.472,0,0,0,.467.479h26.8a.472.472,0,0,0,.467-.479v-3.982a5.422,5.422,0,0,1-4.351-5.358,5.416,5.416,0,0,1,4.351-5.362v-3.982a.472.472,0,0,0-.467-.479h-26.8A.472.472,0,0,0,6649.969-16321.527Zm12.811,13.479a1.062,1.062,0,0,1,1.057-1.065,1.061,1.061,0,0,1,1.053,1.065,1.062,1.062,0,0,1-1.053,1.069A1.062,1.062,0,0,1,6662.78-16308.049Zm0-4.142a1.059,1.059,0,0,1,1.057-1.065,1.058,1.058,0,0,1,1.053,1.065,1.062,1.062,0,0,1-1.053,1.069A1.062,1.062,0,0,1,6662.78-16312.19Zm0-4.273a1.062,1.062,0,0,1,1.057-1.065,1.061,1.061,0,0,1,1.053,1.065,1.062,1.062,0,0,1-1.053,1.069A1.062,1.062,0,0,1,6662.78-16316.464Z" transform="translate(-6647.834 16324.19)" fill="url(#linear-gradient)"/>
</svg>
