<svg xmlns="http://www.w3.org/2000/svg" width="24" height="24" viewBox="0 0 24 24">
  <g id="lock-icon" transform="translate(-1129 -177)">
    <rect id="Rectangle_10682" data-name="Rectangle 10682" width="24" height="24" transform="translate(1129 177)" fill="none"/>
    <g id="Group_12870" data-name="Group 12870" transform="translate(0.596 -7.271)">
      <path id="Subtraction_329" data-name="Subtraction 329" d="M1.181,4.375a.672.672,0,0,1-.455-.136,1.055,1.055,0,0,1-.189-.509V2.091L.418,1.97a1.431,1.431,0,0,1-.385-.579A.968.968,0,0,1,.075.757L.093.719.1.674A.985.985,0,0,1,.516.2.992.992,0,0,1,1.181,0,1,1,0,0,1,1.85.2l.03.021.031.018a1.06,1.06,0,0,1,.368.5l.012.022a.967.967,0,0,1,.038.633,1.422,1.422,0,0,1-.382.58l-.121.121V3.729a.682.682,0,0,1-.137.458A1.017,1.017,0,0,1,1.181,4.375Z" transform="translate(1139.219 197.59)" fill="#fff"/>
      <path id="Subtraction_330" data-name="Subtraction 330" d="M13.253,20.207H2.745A2.873,2.873,0,0,1,.8,19.423,2.978,2.978,0,0,1,0,17.459V10.1A2.963,2.963,0,0,1,.792,8.148a2.959,2.959,0,0,1,1.953-.793h.4v-2.5a4.85,4.85,0,0,1,9.7,0v2.5h.4A2.862,2.862,0,0,1,15.2,8.14,2.96,2.96,0,0,1,16,10.1v7.356a2.85,2.85,0,0,1-.784,1.946A2.963,2.963,0,0,1,13.253,20.207ZM2.745,8.648a1.449,1.449,0,0,0-1.057.4l-.029.029-.021.033a1.834,1.834,0,0,0-.35,1v7.356a1.813,1.813,0,0,0,.35.993l.044.068.068.044a1.79,1.79,0,0,0,.994.349H13.253a1.456,1.456,0,0,0,1.06-.4l.026-.027.024-.036a1.806,1.806,0,0,0,.348-.993V10.1a1.464,1.464,0,0,0-.4-1.059l-.03-.027-.032-.024a1.816,1.816,0,0,0-1-.346ZM8,1.292A3.765,3.765,0,0,0,5.489,2.3l-.018.015-.018.021A3.758,3.758,0,0,0,4.442,4.851v2.5h7.116v-2.5a3.644,3.644,0,0,0-1.029-2.529L10.512,2.3A3.767,3.767,0,0,0,8,1.292Z" transform="translate(1132.403 186.033)" fill="#fff"/>
    </g>
  </g>
</svg>
