<svg xmlns="http://www.w3.org/2000/svg" xmlns:xlink="http://www.w3.org/1999/xlink" width="83" height="83" viewBox="0 0 83 83">
  <defs>
    <linearGradient id="linear-gradient" x2="0.973" y2="1" gradientUnits="objectBoundingBox">
      <stop offset="0" stop-color="#39d1ff"/>
      <stop offset="1" stop-color="#3149ff"/>
    </linearGradient>
  </defs>
  <g id="icon-1" transform="translate(-198 -3850)">
    <path id="Union_362" data-name="Union 362" d="M2167.314-9121.5A15.334,15.334,0,0,1,2152-9136.817a48.229,48.229,0,0,1,4.044-19.234,59.235,59.235,0,0,1,8.862-14.209,67.156,67.156,0,0,1,11.209-10.68l.57-.425-9.883-14.93a1.327,1.327,0,0,1,.152-1.651c3.083-3.165,6.213-4.641,9.851-4.641,2.938,0,6.026.912,10.054,2.384a3.348,3.348,0,0,0,1.25.222,12.508,12.508,0,0,0,4.324-1.245l.011,0,.166-.069a16.793,16.793,0,0,1,6.4-1.7,9.586,9.586,0,0,1,6.862,3.1l.007.007a1.279,1.279,0,0,1,.238,1.55l-9.112,16.9.527.388a65.9,65.9,0,0,1,11.361,10.8,58.533,58.533,0,0,1,8.86,14.209,48.187,48.187,0,0,1,4.044,19.234,15.332,15.332,0,0,1-15.315,15.315Zm11.384-58.081a63.993,63.993,0,0,0-11.858,11.107c-8.093,9.776-12.2,20.429-12.2,31.658a12.69,12.69,0,0,0,12.673,12.676h39.169a12.556,12.556,0,0,0,8.969-3.732,12.506,12.506,0,0,0,3.672-8.943c0-11.248-4.1-21.9-12.2-31.658a62.445,62.445,0,0,0-11.867-11.114l-.194-.132h-15.969Zm-8.6-17.73-.5.432,9.61,14.519h15.278l8.809-16.371-.543-.383a6.216,6.216,0,0,0-3.762-1.277,14.433,14.433,0,0,0-5.386,1.5l-.011,0a14.767,14.767,0,0,1-5.509,1.513,6.213,6.213,0,0,1-2.136-.367c-3.723-1.381-6.552-2.238-9.148-2.238A9.749,9.749,0,0,0,2170.1-9197.313Zm11.225,63.726v-6.326l-.254-.144a12.1,12.1,0,0,1-2.263-1.665,11.635,11.635,0,0,1-2.682-3.79,11.749,11.749,0,0,1-.97-4.807,11.985,11.985,0,0,1,.954-4.8,11.221,11.221,0,0,1,2.679-3.8,12.15,12.15,0,0,1,2.282-1.667l.254-.144v-6.208h2.495v5.173l.617-.149a15.3,15.3,0,0,1,3.543-.4,15.911,15.911,0,0,1,2.1.134l.566.074v-4.829h2.495v5.555l.3.129a11.353,11.353,0,0,1,3.125,1.979,8.506,8.506,0,0,1,1.908,2.446l-2.917,1.24a7.739,7.739,0,0,0-2.735-2.947,8.779,8.779,0,0,0-4.839-1.3,10.167,10.167,0,0,0-4.97,1.2,8.627,8.627,0,0,0-3.388,3.352,9.952,9.952,0,0,0-1.2,4.961,10.075,10.075,0,0,0,1.2,4.978,8.47,8.47,0,0,0,3.393,3.349,10.221,10.221,0,0,0,4.968,1.185,8.891,8.891,0,0,0,4.836-1.281,7.663,7.663,0,0,0,2.737-2.932l2.915,1.236a8.776,8.776,0,0,1-1.908,2.435,11.16,11.16,0,0,1-3.123,1.993l-.3.131v5.639h-2.495v-4.915l-.566.076a15.947,15.947,0,0,1-2.1.132,14.588,14.588,0,0,1-3.541-.416l-.619-.152v5.277Z" transform="translate(-1953.192 13054)" fill="url(#linear-gradient)"/>
    <rect id="Rectangle_8016" data-name="Rectangle 8016" width="83" height="83" transform="translate(198 3850)" fill="none"/>
  </g>
</svg>
