<svg xmlns="http://www.w3.org/2000/svg" xmlns:xlink="http://www.w3.org/1999/xlink" width="83" height="83" viewBox="0 0 83 83">
  <defs>
    <linearGradient id="linear-gradient" x2="1" y2="1.049" gradientUnits="objectBoundingBox">
      <stop offset="0" stop-color="#39d1ff"/>
      <stop offset="1" stop-color="#3149ff"/>
    </linearGradient>
  </defs>
  <g id="icon-3" transform="translate(-956 -344)">
    <rect id="Rectangle_8018" data-name="Rectangle 8018" width="83" height="83" transform="translate(956 344)" fill="none"/>
    <path id="icon-6" d="M7029.111-11722.659a33.659,33.659,0,0,1-14.719-3.063,15.7,15.7,0,0,1-4.062-2.824l-1.3-1.291-1.3,1.292a15.737,15.737,0,0,1-4.059,2.822,33.7,33.7,0,0,1-14.722,3.064,33.7,33.7,0,0,1-14.721-3.063c-2.437-1.217-6.524-3.893-6.524-8.142v-56.234c0-4.245,4.087-6.921,6.524-8.138a33.653,33.653,0,0,1,14.721-3.064,33.7,33.7,0,0,1,14.722,3.064c2.437,1.217,6.523,3.893,6.523,8.141v22.454l2.812-1.712c.445-.272.913-.53,1.389-.768a33.689,33.689,0,0,1,14.72-3.063,33.692,33.692,0,0,1,14.721,3.064c2.437,1.216,6.524,3.892,6.527,8.141v28.115c0,4.249-4.089,6.925-6.527,8.142a33.666,33.666,0,0,1-14.725,3.063Zm-18.92-19.6h0v8.4a4.918,4.918,0,0,0,1.295,3.149,12.119,12.119,0,0,0,3.943,2.911,31.359,31.359,0,0,0,13.682,2.818,31.358,31.358,0,0,0,13.683-2.817,12.185,12.185,0,0,0,3.945-2.912,4.916,4.916,0,0,0,1.293-3.149v-8.4l-2.814,1.712c-.424.261-.891.52-1.387.768a33.709,33.709,0,0,1-14.721,3.063,33.685,33.685,0,0,1-14.719-3.063c-.477-.237-.944-.5-1.389-.768l-2.812-1.712Zm-40.167,0h0v8.4a4.913,4.913,0,0,0,1.3,3.15,12.133,12.133,0,0,0,3.943,2.911,31.361,31.361,0,0,0,13.683,2.817,31.333,31.333,0,0,0,13.68-2.818,12.144,12.144,0,0,0,3.944-2.911,4.917,4.917,0,0,0,1.294-3.149v-8.4l-2.812,1.712c-.447.273-.914.531-1.386.768a33.712,33.712,0,0,1-14.722,3.063,33.7,33.7,0,0,1-14.721-3.064c-.5-.247-.962-.506-1.388-.767l-2.814-1.712Zm40.167-14.059h0v8.4a4.92,4.92,0,0,0,1.294,3.149,12.167,12.167,0,0,0,3.943,2.912,31.37,31.37,0,0,0,13.682,2.818,31.343,31.343,0,0,0,13.682-2.818,12.182,12.182,0,0,0,3.946-2.912,4.914,4.914,0,0,0,1.293-3.148v-8.4l-2.814,1.713c-.424.261-.891.52-1.387.768a33.75,33.75,0,0,1-14.721,3.06,33.715,33.715,0,0,1-14.719-3.061c-.49-.244-.957-.5-1.389-.767l-2.812-1.713Zm-40.167,0h0v8.4a4.91,4.91,0,0,0,1.3,3.149,12.148,12.148,0,0,0,3.943,2.912,31.369,31.369,0,0,0,13.682,2.818,31.345,31.345,0,0,0,13.68-2.818,12.151,12.151,0,0,0,3.945-2.911,4.917,4.917,0,0,0,1.294-3.149v-8.4l-2.812,1.713c-.441.27-.907.527-1.386.768a33.685,33.685,0,0,1-14.722,3.064,33.668,33.668,0,0,1-14.721-3.064c-.5-.248-.962-.507-1.387-.768l-2.814-1.713Zm59.087-14.54a31.36,31.36,0,0,0-13.679,2.818,12.135,12.135,0,0,0-3.946,2.912,4.92,4.92,0,0,0-1.294,3.148,4.915,4.915,0,0,0,1.295,3.146,12.123,12.123,0,0,0,3.943,2.916,31.383,31.383,0,0,0,13.682,2.817,31.372,31.372,0,0,0,13.682-2.819,12.193,12.193,0,0,0,3.946-2.914,4.909,4.909,0,0,0,1.293-3.146,4.919,4.919,0,0,0-1.293-3.149,12.221,12.221,0,0,0-3.946-2.912,31.358,31.358,0,0,0-13.683-2.817Zm-59.087.482h0v8.4a4.911,4.911,0,0,0,1.3,3.149,12.094,12.094,0,0,0,3.943,2.909,31.314,31.314,0,0,0,13.682,2.821,31.345,31.345,0,0,0,13.68-2.818,12.137,12.137,0,0,0,3.945-2.911,4.917,4.917,0,0,0,1.294-3.149v-8.4l-2.812,1.713c-.448.27-.914.528-1.386.767a33.712,33.712,0,0,1-14.722,3.063,33.723,33.723,0,0,1-14.721-3.062c-.492-.248-.958-.506-1.388-.767l-2.814-1.713Zm0-14.061h0v8.4a4.922,4.922,0,0,0,1.3,3.147,12.158,12.158,0,0,0,3.941,2.912,31.349,31.349,0,0,0,13.684,2.819,31.326,31.326,0,0,0,13.678-2.821,12.154,12.154,0,0,0,3.946-2.909,4.918,4.918,0,0,0,1.294-3.147v-8.4l-2.812,1.715c-.448.271-.915.528-1.386.765a33.7,33.7,0,0,1-14.722,3.063,33.655,33.655,0,0,1-14.722-3.062c-.479-.241-.946-.5-1.387-.766l-2.814-1.715Zm18.922-14.538a31.37,31.37,0,0,0-13.682,2.818,12.15,12.15,0,0,0-3.943,2.911,4.908,4.908,0,0,0-1.3,3.148,4.906,4.906,0,0,0,1.3,3.147,12.148,12.148,0,0,0,3.942,2.915,31.362,31.362,0,0,0,13.683,2.817,31.333,31.333,0,0,0,13.68-2.818,12.116,12.116,0,0,0,3.945-2.914,4.914,4.914,0,0,0,1.294-3.147,4.921,4.921,0,0,0-1.294-3.147,12.158,12.158,0,0,0-3.946-2.912,31.331,31.331,0,0,0-13.679-2.817Z" transform="translate(-6011.53 12147.61)" fill="url(#linear-gradient)"/>
  </g>
</svg>
