<svg xmlns="http://www.w3.org/2000/svg" xmlns:xlink="http://www.w3.org/1999/xlink" width="83" height="83" viewBox="0 0 83 83">
  <defs>
    <linearGradient id="linear-gradient" x1="0.5" x2="0.5" y2="1" gradientUnits="objectBoundingBox">
      <stop offset="0" stop-color="#39d1ff"/>
      <stop offset="1" stop-color="#3149ff"/>
    </linearGradient>
  </defs>
  <g id="icon-2" transform="translate(-956 -3850)">
    <path id="Subtraction_308" data-name="Subtraction 308" d="M2231.481-9120h-73.463l1.437-9.841a15.307,15.307,0,0,1,9.5-11.987l.487-.191.2-.48a6.048,6.048,0,0,1,5.571-3.693,5.97,5.97,0,0,1,3.813,1.36l.476.386,4.823-1.118v-5.118l-.557-.369a19.86,19.86,0,0,1-8.894-16.556v-8.837h-8.61a7.73,7.73,0,0,1-7.721-7.721v-2.922l-.561-.37a7.712,7.712,0,0,1-3.483-6.45v-4.384h14.842a7.915,7.915,0,0,1,7.446,5.271l.771,2.176,1.4-1.832a20.1,20.1,0,0,1,6.85-5.693,19.578,19.578,0,0,1,8.938-2.129,19.582,19.582,0,0,1,8.941,2.129,20.111,20.111,0,0,1,6.851,5.693l1.4,1.832.769-2.176a7.916,7.916,0,0,1,7.4-5.271H2235v4.384a7.712,7.712,0,0,1-3.483,6.45l-.561.37v2.922a7.73,7.73,0,0,1-7.721,7.721h-8.611v8.837a19.86,19.86,0,0,1-8.894,16.556l-.557.369v5.118l13.225,3.067a15.194,15.194,0,0,1,7.776,4.529,15.2,15.2,0,0,1,3.871,8.128l1.436,9.84Zm-62.453-19.382-1.284.8a13.09,13.09,0,0,0-3.954,3.859,12.929,12.929,0,0,0-2,5.223l-1.042,7.137h9.437v-14.407l-.176-.3a5.874,5.874,0,0,1-.439-.905l-.545-1.411Zm17.664-9.98v5.675l-5.726,1.328.2,1.166.088.511.342.3a73.19,73.19,0,0,0,24.944,14.128l11.777,3.9h10.428l-1.042-7.137a12.82,12.82,0,0,0-9.844-10.7l-15.057-3.492v-5.675l-1.654.566a19.782,19.782,0,0,1-6.4,1.06,19.791,19.791,0,0,1-6.4-1.06l-1.654-.566Zm-14.14,14.858h0v12.142h30.6l.427-2.425A75.561,75.561,0,0,1,2182-9136.975l-1.046-.845-.765,1.106a6.056,6.056,0,0,1-4.977,2.616,6.152,6.152,0,0,1-1.173-.115l-1.49-.293Zm2.663-9.324a3.689,3.689,0,0,0-3.686,3.684,3.69,3.69,0,0,0,3.686,3.687,3.69,3.69,0,0,0,3.686-3.687A3.689,3.689,0,0,0,2175.215-9143.829Zm2.026-31.792v8.01a17.528,17.528,0,0,0,17.507,17.509,17.53,17.53,0,0,0,17.512-17.509v-8.01l-1.647.547a5.741,5.741,0,0,1-1.845.3,5.841,5.841,0,0,1-2.806-.716l-1.011-.557-.633.966a5.851,5.851,0,0,1-4.894,2.645,5.844,5.844,0,0,1-3.85-1.45l-.825-.721-.822.721a5.845,5.845,0,0,1-3.85,1.45,5.851,5.851,0,0,1-4.894-2.645l-.633-.963-1.012.554a5.839,5.839,0,0,1-2.806.716,5.743,5.743,0,0,1-1.845-.3l-1.645-.547Zm16.1-1.421h2.825a3.514,3.514,0,0,0,3.261,2.242,3.5,3.5,0,0,0,3.49-3.492v-1.085h2.6a3.513,3.513,0,0,0,3.259,2.24,3.5,3.5,0,0,0,3.492-3.49,17.53,17.53,0,0,0-17.512-17.509,17.355,17.355,0,0,0-6.809,1.379,17.489,17.489,0,0,0-5.566,3.753,17.533,17.533,0,0,0-3.756,5.566,17.362,17.362,0,0,0-1.376,6.809,3.5,3.5,0,0,0,3.49,3.492,3.52,3.52,0,0,0,3.261-2.24h2.594v1.085a3.5,3.5,0,0,0,3.49,3.492,3.516,3.516,0,0,0,3.261-2.241Zm26.82-18.889a5.54,5.54,0,0,0-5.534,5.534v11.585h8.611a5.362,5.362,0,0,0,5.356-5.355v-2.033l-1.259.01h-5.222v-2.36h5.171a5.363,5.363,0,0,0,5.356-5.358v-2.021Zm-59.247,9.73v2.033a5.362,5.362,0,0,0,5.356,5.355h8.61V-9190.4a5.54,5.54,0,0,0-5.534-5.534h-12.479v2.021a5.322,5.322,0,0,0,1.571,3.785,5.312,5.312,0,0,0,3.785,1.57h5.171v2.363h-5.171l-1.31-.01Z" transform="translate(-1198.5 13051.5)" fill="url(#linear-gradient)"/>
    <rect id="Rectangle_8895" data-name="Rectangle 8895" width="83" height="83" transform="translate(956 3850)" fill="none"/>
  </g>
</svg>
