<svg xmlns="http://www.w3.org/2000/svg" width="16.035" height="16.035" viewBox="0 0 16.035 16.035">
  <path id="warning" d="M9,1A8.017,8.017,0,1,1,3.348,3.348,8.017,8.017,0,0,1,9,1ZM9,4.429a.985.985,0,0,0-.768.339,1.039,1.039,0,0,0-.268.8l.411,4.571a.642.642,0,0,0,.2.4A.608.608,0,0,0,9,10.7a.6.6,0,0,0,.419-.152.646.646,0,0,0,.2-.4l.411-4.571a1.035,1.035,0,0,0-.268-.8A.989.989,0,0,0,9,4.429Zm0,9.143a.966.966,0,0,0,.652-.268.855.855,0,0,0,.259-.643.911.911,0,1,0-1.822,0,.853.853,0,0,0,.259.643A.974.974,0,0,0,9,13.571Z" transform="translate(-1 -1)" fill="#e9e9f2"/>
</svg>
