<svg xmlns="http://www.w3.org/2000/svg" xmlns:xlink="http://www.w3.org/1999/xlink" width="147.547" height="147.539" viewBox="0 0 147.547 147.539">
  <defs>
    <linearGradient id="linear-gradient" x1="0.5" x2="0.5" y2="1" gradientUnits="objectBoundingBox">
      <stop offset="0" stop-color="#39d1ff"/>
      <stop offset="1" stop-color="#3149ff"/>
    </linearGradient>
  </defs>
  <path id="big-checkmark" d="M-198.728-15880.959a73.854,73.854,0,0,1-73.774-73.768,73.856,73.856,0,0,1,73.774-73.771,73.856,73.856,0,0,1,73.774,73.771A73.854,73.854,0,0,1-198.728-15880.959Zm0-141.156a67.465,67.465,0,0,0-67.388,67.389,67.463,67.463,0,0,0,67.388,67.387,67.463,67.463,0,0,0,67.388-67.387A67.465,67.465,0,0,0-198.728-16022.115Zm-10.512,90.612a3.2,3.2,0,0,1-2.257-.9l-19.106-19.1a3.168,3.168,0,0,1-.934-2.257,3.179,3.179,0,0,1,.939-2.258,3.156,3.156,0,0,1,2.257-.932,3.17,3.17,0,0,1,2.257.932l16.845,16.847,37.868-37.869a3.2,3.2,0,0,1,2.259-.906,3.2,3.2,0,0,1,2.259.906,3.154,3.154,0,0,1,.934,2.257,3.165,3.165,0,0,1-.934,2.256l-40.129,40.129A3.2,3.2,0,0,1-209.239-15931.5Z" transform="translate(272.502 16028.498)" fill="url(#linear-gradient)"/>
</svg>
