<svg xmlns="http://www.w3.org/2000/svg" width="15.997" height="24.999" viewBox="0 0 15.997 24.999">
  <path id="down-arrow" d="M-269-15094a1.164,1.164,0,0,1-.831-.338l-6.823-6.651a1.128,1.128,0,0,1-.344-.813,1.124,1.124,0,0,1,.344-.811,1.175,1.175,0,0,1,.831-.334,1.188,1.188,0,0,1,.831.334l4.815,4.7v-19.937A1.163,1.163,0,0,1-269-15119a1.163,1.163,0,0,1,1.176,1.146v19.937l4.815-4.7a1.188,1.188,0,0,1,.831-.334,1.175,1.175,0,0,1,.831.334,1.115,1.115,0,0,1,.345.812,1.121,1.121,0,0,1-.345.813l-6.823,6.651A1.176,1.176,0,0,1-269-15094Z" transform="translate(276.999 15119)" fill="#fff"/>
</svg>
