<svg xmlns="http://www.w3.org/2000/svg" width="44.004" height="44.004" viewBox="0 0 44.004 44.004">
  <g id="binance-wallet" transform="translate(-742 -361)">
    <path id="Path_30010" data-name="Path 30010" d="M22,44A22,22,0,1,0,0,22,22,22,0,0,0,22,44Z" transform="translate(742 361)" fill="#101010"/>
    <path id="BNB_chain_loog" data-name="BNB chain loog" d="M180.614,325.863v3.684l-3.212,1.89-3.118-1.89v-3.684l3.118,1.889ZM163.42,313.109l3.118,1.89v6.33l5.385,3.212v3.684l-8.5-5.007Zm27.964,0v10.109l-8.6,5.007V324.54l5.385-3.212V315Zm-8.6-5.007,3.212,1.89h0v3.684l-5.385,3.212v6.424L177.5,325.2l-3.118-1.889v-6.424l-5.574-3.212v-3.684l3.212-1.89,5.385,3.212ZM168.8,316.321l3.118,1.889v3.685l-3.118-1.889Zm17.194,0v3.685l-3.118,1.889V318.21ZM166.538,304.89l3.212,1.89-3.212,1.889v3.684l-3.118-1.889v-3.684Zm21.729,0,3.212,1.89v3.684l-3.212,1.889v-3.684l-3.118-1.889Zm-10.864,0,3.212,1.89-3.212,1.889-3.118-1.889Zm0-6.33,8.6,5.007-3.118,1.889-5.385-3.212-5.48,3.212-3.118-1.889Z" transform="translate(586.552 68.003)" fill="#f3ba2f"/>
  </g>
</svg>
