<svg xmlns="http://www.w3.org/2000/svg" xmlns:xlink="http://www.w3.org/1999/xlink" width="44" height="44" viewBox="0 0 44 44">
  <defs>
    <linearGradient id="linear-gradient" x2="1" gradientUnits="objectBoundingBox">
      <stop offset="0" stop-color="#252525"/>
      <stop offset="1" stop-color="#313131"/>
    </linearGradient>
    <linearGradient id="linear-gradient-2" x2="1" gradientUnits="objectBoundingBox">
      <stop offset="0" stop-color="#d3b560"/>
      <stop offset="1" stop-color="#ead571"/>
    </linearGradient>
  </defs>
  <g id="coin98-wallet" transform="translate(-742 -433)">
    <rect id="Rectangle_12237" data-name="Rectangle 12237" width="44" height="44" rx="8" transform="translate(742 433)" fill="url(#linear-gradient)"/>
    <path id="Union_402" data-name="Union 402" d="M15.033,15.174a7.055,7.055,0,0,1,7.194-6.9,7.045,7.045,0,0,1,7.182,6.9,7.042,7.042,0,0,1-7.18,6.882A7.049,7.049,0,0,1,15.033,15.174Zm2.952-.008a4.246,4.246,0,0,0,8.484,0,4.246,4.246,0,0,0-8.484,0Zm-16.953,1H3.985a3.144,3.144,0,0,0,3.2,3.077,3.138,3.138,0,0,0,3.2-3.077h2.955a6.03,6.03,0,0,1-6.151,5.895A6.035,6.035,0,0,1,1.031,16.161Zm20.7,1.414V16.546a1.426,1.426,0,0,1-.993-1.347,1.451,1.451,0,0,1,1.483-1.421A1.473,1.473,0,0,1,23.719,15.2a1.426,1.426,0,0,1-.993,1.347v1.029ZM0,6.895A7.05,7.05,0,0,1,7.183,0a7.059,7.059,0,0,1,7.2,6.895,7.052,7.052,0,0,1-7.2,6.884A7.045,7.045,0,0,1,0,6.895Zm2.942,0a4.168,4.168,0,0,0,4.241,4.062,4.163,4.163,0,0,0,4.243-4.063A4.157,4.157,0,0,0,7.183,2.83,4.161,4.161,0,0,0,2.942,6.9Zm22.1.45a2.972,2.972,0,0,0,.381-1.454,3.2,3.2,0,0,0-6.4,0,2.9,2.9,0,0,0,.381,1.452,8.432,8.432,0,0,0-2.583,1.363,5.644,5.644,0,0,1-.753-2.819A6.033,6.033,0,0,1,22.223,0a6.033,6.033,0,0,1,6.152,5.893,5.665,5.665,0,0,1-.753,2.819A8.43,8.43,0,0,0,25.041,7.347ZM5.694,7.059a1.42,1.42,0,0,1,.991-1.334V4.7h.991V5.731a1.406,1.406,0,0,1,.994,1.335,1.447,1.447,0,0,1-1.483,1.42A1.469,1.469,0,0,1,5.694,7.059ZM22.226,8.276h0Z" transform="translate(749.296 444)" fill="url(#linear-gradient-2)"/>
  </g>
</svg>
