<svg id="metamask-logo" xmlns="http://www.w3.org/2000/svg" width="64" height="64" viewBox="0 0 64 64">
  <circle id="Ellipse_137" data-name="Ellipse 137" cx="32" cy="32" r="32" fill="#fff"/>
  <path id="Path_4234" data-name="Path 4234" d="M69.154,16.916,51.942,29.672l3.2-7.518Z" transform="translate(-17.314 -5.639)" fill="#e17726"/>
  <path id="Path_4235" data-name="Path 4235" d="M18.266,16.916,35.308,29.791l-3.044-7.637Z" transform="translate(-6.089 -5.639)" fill="#e27625"/>
  <path id="Path_4236" data-name="Path 4236" d="M66.186,61.281l-4.575,7.007,9.8,2.7L74.2,61.434Z" transform="translate(-20.537 -20.427)" fill="#e27625"/>
  <path id="Path_4237" data-name="Path 4237" d="M15.536,61.434l2.772,9.559,9.8-2.7-4.558-7.007Z" transform="translate(-5.179 -20.427)" fill="#e27625"/>
  <path id="Path_4238" data-name="Path 4238" d="M32.229,40.574,29.491,44.69l9.712.442-.34-10.46Z" transform="translate(-9.83 -11.557)" fill="#e27625"/>
  <path id="Path_4239" data-name="Path 4239" d="M58.932,40.515,52.18,34.494l-.238,10.579,9.712-.442Z" transform="translate(-17.314 -11.498)" fill="#e27625"/>
  <path id="Path_4240" data-name="Path 4240" d="M34.389,68.4l5.851-2.84-5.034-3.946Z" transform="translate(-11.463 -20.538)" fill="#e27625"/>
  <path id="Path_4241" data-name="Path 4241" d="M52.834,65.559l5.851,2.84-.816-6.786Z" transform="translate(-17.611 -20.538)" fill="#e27625"/>
  <path id="Path_4242" data-name="Path 4242" d="M58.685,70.372l-5.851-2.84.459,3.81-.051,1.6Z" transform="translate(-17.611 -22.511)" fill="#d5bfb2"/>
  <path id="Path_4243" data-name="Path 4243" d="M34.389,70.372l5.443,2.568-.034-1.6.442-3.81Z" transform="translate(-11.463 -22.511)" fill="#d5bfb2"/>
  <path id="Path_4244" data-name="Path 4244" d="M40.274,56.332,35.41,54.9l3.436-1.582Z" transform="translate(-11.803 -17.774)" fill="#233447"/>
  <path id="Path_4245" data-name="Path 4245" d="M53.294,56.332l1.429-3.01,3.47,1.582Z" transform="translate(-17.765 -17.774)" fill="#233447"/>
  <path id="Path_4246" data-name="Path 4246" d="M32.11,68.288l.85-7.007-5.409.153Z" transform="translate(-9.184 -20.427)" fill="#cc6228"/>
  <path id="Path_4247" data-name="Path 4247" d="M60.335,61.281l.85,7.007,4.575-6.854Z" transform="translate(-20.112 -20.427)" fill="#cc6228"/>
  <path id="Path_4248" data-name="Path 4248" d="M61.654,49.7l-9.712.442.9,4.983,1.429-3.01,3.47,1.582Z" transform="translate(-17.314 -16.566)" fill="#cc6228"/>
  <path id="Path_4249" data-name="Path 4249" d="M33.437,53.7l3.436-1.582,1.429,3.01.9-4.983L29.491,49.7Z" transform="translate(-9.83 -16.566)" fill="#cc6228"/>
  <path id="Path_4250" data-name="Path 4250" d="M29.491,49.7l4.082,7.943L33.437,53.7Z" transform="translate(-9.83 -16.566)" fill="#e27525"/>
  <path id="Path_4251" data-name="Path 4251" d="M60.556,53.7l-.17,3.946L64.468,49.7Z" transform="translate(-20.129 -16.566)" fill="#e27525"/>
  <path id="Path_4252" data-name="Path 4252" d="M43.608,50.362l-.9,4.983,1.14,5.885.238-7.756Z" transform="translate(-14.235 -16.787)" fill="#e27525"/>
  <path id="Path_4253" data-name="Path 4253" d="M51.712,50.362l-.459,3.1.221,7.773,1.14-5.885Z" transform="translate(-17.084 -16.787)" fill="#e27525"/>
  <path id="Path_4254" data-name="Path 4254" d="M52.724,57.123l-1.14,5.885.833.578,5.034-3.946.17-3.946Z" transform="translate(-17.195 -18.565)" fill="#f5841f"/>
  <path id="Path_4255" data-name="Path 4255" d="M35.41,55.694l.136,3.946,5.034,3.946.833-.578-1.14-5.885Z" transform="translate(-11.803 -18.565)" fill="#f5841f"/>
  <path id="Path_4256" data-name="Path 4256" d="M47.094,74.36l.051-1.6-.425-.374H40.206l-.408.374.034,1.6-5.443-2.568,1.9,1.565,3.861,2.67h6.616l3.861-2.67,1.9-1.565Z" transform="translate(-11.463 -23.931)" fill="#c0ac9d"/>
  <path id="Path_4257" data-name="Path 4257" d="M49.39,67.242l-.833-.578H43.778l-.833.578-.442,3.81.408-.374h6.514l.425.374Z" transform="translate(-14.167 -22.221)" fill="#161616"/>
  <path id="Path_4258" data-name="Path 4258" d="M70.166,30.505l1.446-7.041-2.16-6.548L52.834,29.246l6.4,5.409,9.014,2.636,1.99-2.33-.867-.629,1.395-1.259-1.054-.833L71.084,31.2Z" transform="translate(-17.611 -5.639)" fill="#763e1a"/>
  <path id="Path_4259" data-name="Path 4259" d="M15,23.464l1.463,7.041-.935.7L16.9,32.24l-1.055.833,1.395,1.259-.867.629,1.99,2.33L27.4,34.655l6.378-5.409-16.6-12.331Z" transform="translate(-5 -5.639)" fill="#763e1a"/>
  <path id="Path_4260" data-name="Path 4260" d="M70.761,46.161l-9.014-2.636,2.721,4.116-4.082,7.943,5.392-.068h8.011Z" transform="translate(-20.129 -14.508)" fill="#f5841f"/>
  <path id="Path_4261" data-name="Path 4261" d="M27.577,43.525l-9.031,2.636-3.01,9.354h8.011l5.375.068-4.082-7.943Z" transform="translate(-5.179 -14.508)" fill="#f5841f"/>
  <path id="Path_4262" data-name="Path 4262" d="M47.715,41.832l.6-9.967,2.6-7.092H39.262l2.6,7.092.6,9.967.221,3.129L42.7,52.7h4.779l.017-7.739Z" transform="translate(-13.087 -8.258)" fill="#f5841f"/>
</svg>
