<svg xmlns="http://www.w3.org/2000/svg" xmlns:xlink="http://www.w3.org/1999/xlink" width="64" height="64" viewBox="0 0 64 64">
  <defs>
    <clipPath id="clip-path">
      <rect id="Rectangle_9276" data-name="Rectangle 9276" width="64" height="64" transform="translate(0.001)" fill="#fff"/>
    </clipPath>
  </defs>
  <g id="trustwallet-logo" transform="translate(-0.001)" clip-path="url(#clip-path)">
    <path id="Path_25754" data-name="Path 25754" d="M32,64.006A32,32,0,1,0,0,32,32,32,0,0,0,32,64.006Z" fill="#3375bb"/>
    <path id="Path_25755" data-name="Path 25755" d="M39.769,22.173l.875-1.139a1.442,1.442,0,0,0-1.757,0ZM54.818,26.6h1.435a1.442,1.442,0,0,0-1.435-1.461ZM39.769,57.337l-.8,1.2a1.429,1.429,0,0,0,1.59,0ZM24.733,26.6V25.153A1.442,1.442,0,0,0,23.3,26.615Zm14.161-3.289c6.514,5.046,13.974,4.725,15.931,4.725V25.153c-2.028,0-8.522.257-14.161-4.119Zm14.5,3.263a114.364,114.364,0,0,1-.933,14.856c-.541,3.482-1.287,5.516-2.272,6.971a11.774,11.774,0,0,1-4.094,3.5c-1.847,1.1-4.21,2.324-7.119,4.248l1.622,2.388c2.755-1.834,5.046-3.006,7-4.171A15.237,15.237,0,0,0,52.584,50a20,20,0,0,0,2.736-8.136,116.749,116.749,0,0,0,.965-15.249Zm-12.8,29.577c-2.89-1.931-5.246-3.128-7.08-4.242A11.542,11.542,0,0,1,29.425,48.4a17.025,17.025,0,0,1-2.349-6.971,112.756,112.756,0,0,1-.908-14.856l-2.871.045a117.73,117.73,0,0,0,.965,15.249A19.665,19.665,0,0,0,26.992,50a15.127,15.127,0,0,0,4.982,4.364c1.931,1.165,4.242,2.336,7,4.171ZM24.733,28.031c1.931,0,9.4.322,15.912-4.725l-1.757-2.272c-5.651,4.377-12.146,4.119-14.161,4.119Z" transform="translate(-7.766 -6.912)" fill="#fff"/>
  </g>
</svg>
