<svg id="walletconnect-logo" xmlns="http://www.w3.org/2000/svg" width="64" height="64" viewBox="0 0 64 64">
  <path id="Path_4265" data-name="Path 4265" d="M64,32A32,32,0,1,0,32,64,32,32,0,0,0,64,32Z" fill="#3389fb"/>
  <path id="Path_4266" data-name="Path 4266" d="M25.462,32.95a17.522,17.522,0,0,1,24.41,0l.811.794a.832.832,0,0,1,0,1.195l-2.775,2.717a.438.438,0,0,1-.61,0l-1.116-1.093a12.224,12.224,0,0,0-17.029,0l-1.2,1.171a.438.438,0,0,1-.61,0l-2.775-2.717a.833.833,0,0,1,0-1.2Zm30.149,5.619,2.47,2.418a.832.832,0,0,1,0,1.195l-11.137,10.9a.876.876,0,0,1-1.221,0h0l-7.9-7.739a.219.219,0,0,0-.305,0h0l-7.9,7.739a.876.876,0,0,1-1.22,0h0l-11.137-10.9a.832.832,0,0,1,0-1.195l2.47-2.418a.876.876,0,0,1,1.22,0l7.9,7.739a.219.219,0,0,0,.305,0h0l7.9-7.739a.876.876,0,0,1,1.221,0h0l7.9,7.739a.219.219,0,0,0,.305,0l7.9-7.739A.876.876,0,0,1,55.611,38.569Z" transform="translate(-5.667 -9.333)" fill="#fff"/>
</svg>
