<svg xmlns="http://www.w3.org/2000/svg" width="48" height="42" viewBox="0 0 48 42">
  <g id="filter" transform="translate(-292 -282)">
    <rect id="Rectangle_10192" data-name="Rectangle 10192" width="48" height="42" rx="3" transform="translate(292 282)" fill="#000071"/>
    <g id="filters-icon">
      <rect id="Rectangle_10204" data-name="Rectangle 10204" width="24" height="25" transform="translate(304 290)" fill="none"/>
      <g id="Group_13100" data-name="Group 13100" transform="translate(-0.396 -0.695)">
        <path id="Subtraction_350" data-name="Subtraction 350" d="M14.408,1.545H.772A.71.71,0,0,1,0,.772.709.709,0,0,1,.772,0H14.408a.709.709,0,0,1,.772.772A.71.71,0,0,1,14.408,1.545Z" transform="translate(308.805 302.513)" fill="#fff"/>
        <path id="Subtraction_351" data-name="Subtraction 351" d="M7.591,1.545H.772A.71.71,0,0,1,0,.772.709.709,0,0,1,.772,0H7.591a.71.71,0,0,1,.772.772A.71.71,0,0,1,7.591,1.545Z" transform="translate(312.214 309.33)" fill="#fff"/>
        <path id="Subtraction_349" data-name="Subtraction 349" d="M21.228,1.545H.772A.71.71,0,0,1,0,.772.709.709,0,0,1,.772,0H21.228A.709.709,0,0,1,22,.772.71.71,0,0,1,21.228,1.545Z" transform="translate(305.397 295.695)" fill="#fff"/>
      </g>
    </g>
  </g>
</svg>
